ply
format ascii 1.0
comment Non-linear ultimate buckling strength analysis of stiffened panel.
comment Local buckling of stiffeners under longitudinal compression.
comment Computed with LH3D-3H ABC solver by RINA S.p.A.
comment Coordinates and thicknesses in mm, stresses in kN/mm2.
comment Deformation scaled for better presentation.
element vertex 585
property double x
property double y
property double z
property double Deflection
property double Normal_X_Stress
property double Normal_Y_Stress
property double Shear_Stress
property double VonMises_Stress
element face 480
property list uchar uint vertex_indices
property double Thickness
property double Yield_Stress
end_header
0 0 0 0 -234.444 -31.3816 0 220.435
0 80 0 0 -226.318 -31.5472 0 212.309
0 160 0 0 -203.942 -31.959 0 189.989
0 240 0 0 -174.84 -32.3611 0 161.116
0 320 0 0 -150.932 -32.5356 0 137.58
0 400 0 0 -141.87 -32.5543 0 128.719
0 480 0 0 -150.932 -32.5356 0 137.58
0 560 0 0 -174.84 -32.3611 0 161.116
0 640 0 0 -203.942 -31.959 0 189.989
0 720 0 0 -226.318 -31.5472 0 212.309
0 800 0 0 -234.444 -31.3816 0 220.435
0 880 0 0 -226.318 -31.5472 0 212.309
0 960 0 0 -203.942 -31.959 0 189.989
0 1040 0 0 -174.84 -32.3611 0 161.116
0 1120 0 0 -150.932 -32.5356 0 137.58
0 1200 0 0 -141.87 -32.5543 0 128.719
0 1280 0 0 -150.932 -32.5356 0 137.58
0 1360 0 0 -174.84 -32.3611 0 161.116
0 1440 0 0 -203.942 -31.959 0 189.989
0 1520 0 0 -226.318 -31.5472 0 212.309
0 1600 0 0 -234.444 -31.3816 0 220.435
0 1680 0 0 -226.318 -31.5472 0 212.309
0 1760 0 0 -203.942 -31.959 0 189.989
0 1840 0 0 -174.84 -32.3611 0 161.116
0 1920 0 0 -150.932 -32.5356 0 137.58
0 2000 0 0 -141.87 -32.5543 0 128.719
0 2080 0 0 -150.932 -32.5356 0 137.58
0 2160 0 0 -174.84 -32.3611 0 161.116
0 2240 0 0 -203.942 -31.959 0 189.989
0 2320 0 0 -226.318 -31.5472 0 212.309
0 2400 0 0 -234.444 -31.3816 0 220.435
166.667 0 0 0 -235.052 0.135213 0 235.12
166.667 80 -12.8016 -1.22476 -226.784 0.130342 0.428273 226.85
166.667 160 -24.7483 -2.36772 -203.921 0.120182 0.61444 203.984
166.667 240 -34.4073 -3.29181 -174.382 0.110839 0.404665 174.439
166.667 320 -40.4588 -3.87077 -150.649 0.103723 0.088626 150.701
166.667 400 -42.4665 -4.06285 -141.855 0.10069 9.60697e-016 141.905
166.667 480 -40.4588 -3.87077 -150.649 0.103723 -0.088626 150.701
166.667 560 -34.4073 -3.29181 -174.382 0.110839 -0.404665 174.439
166.667 640 -24.7483 -2.36772 -203.921 0.120182 -0.61444 203.984
166.667 720 -12.8016 -1.22476 -226.784 0.130342 -0.428273 226.85
166.667 800 1.79144e-014 1.7139e-015 -235.052 0.135213 -3.61298e-016 235.12
166.667 880 12.8016 1.22476 -226.784 0.130342 -0.428273 226.85
166.667 960 24.7483 2.36772 -203.921 0.120182 -0.61444 203.984
166.667 1040 34.4073 3.29181 -174.382 0.110839 -0.404665 174.439
166.667 1120 40.4588 3.87077 -150.649 0.103723 -0.088626 150.701
166.667 1200 42.4665 4.06285 -141.855 0.10069 -1.05781e-015 141.905
166.667 1280 40.4588 3.87077 -150.649 0.103723 0.088626 150.701
166.667 1360 34.4073 3.29181 -174.382 0.110839 0.404665 174.439
166.667 1440 24.7483 2.36772 -203.921 0.120182 0.61444 203.984
166.667 1520 12.8016 1.22476 -226.784 0.130342 0.428273 226.85
166.667 1600 -1.00637e-014 -9.62815e-016 -235.052 0.135213 8.7259e-016 235.12
166.667 1680 -12.8016 -1.22476 -226.784 0.130342 0.428273 226.85
166.667 1760 -24.7483 -2.36772 -203.921 0.120182 0.61444 203.984
166.667 1840 -34.4073 -3.29181 -174.382 0.110839 0.404665 174.439
166.667 1920 -40.4588 -3.87077 -150.649 0.103723 0.088626 150.701
166.667 2000 -42.4665 -4.06285 -141.855 0.10069 8.81282e-016 141.905
166.667 2080 -40.4588 -3.87077 -150.649 0.103723 -0.088626 150.701
166.667 2160 -34.4073 -3.29181 -174.382 0.110839 -0.404665 174.439
166.667 2240 -24.7483 -2.36772 -203.921 0.120182 -0.61444 203.984
166.667 2320 -12.8016 -1.22476 -226.784 0.130342 -0.428273 226.85
166.667 2400 2.63901e-014 2.52479e-015 -235.052 0.135213 -7.22597e-016 235.12
333.333 0 0 0 -235.714 31.5483 0 252.968
333.333 80 -18.0461 -1.72651 -227.285 31.7017 0.0497564 244.681
333.333 160 -34.9139 -3.34028 -203.902 32.0785 0.0749281 221.688
333.333 240 -48.5786 -4.64761 -173.903 32.4375 0.0632232 192.186
333.333 320 -57.1525 -5.46789 -150.337 32.5853 0.031012 169.003
333.333 400 -59.9992 -5.74024 -141.809 32.5973 -2.61054e-017 160.608
333.333 480 -57.1525 -5.46789 -150.337 32.5853 -0.031012 169.003
333.333 560 -48.5786 -4.64761 -173.903 32.4375 -0.0632232 192.186
333.333 640 -34.9139 -3.34028 -203.902 32.0785 -0.0749281 221.688
333.333 720 -18.0461 -1.72651 -227.285 31.7017 -0.0497564 244.681
333.333 800 2.52451e-014 2.41525e-015 -235.714 31.5483 -4.20355e-017 252.968
333.333 880 18.0461 1.72651 -227.285 31.7017 -0.0497564 244.681
333.333 960 34.9139 3.34028 -203.902 32.0785 -0.0749281 221.688
333.333 1040 48.5786 4.64761 -173.903 32.4375 -0.0632232 192.186
333.333 1120 57.1525 5.46789 -150.337 32.5853 -0.031012 169.003
333.333 1200 59.9992 5.74024 -141.809 32.5973 -5.69514e-017 160.608
333.333 1280 57.1525 5.46789 -150.337 32.5853 0.031012 169.003
333.333 1360 48.5786 4.64761 -173.903 32.4375 0.0632232 192.186
333.333 1440 34.9139 3.34028 -203.902 32.0785 0.0749281 221.688
333.333 1520 18.0461 1.72651 -227.285 31.7017 0.0497564 244.681
333.333 1600 -1.41819e-014 -1.35681e-015 -235.714 31.5483 1.07301e-016 252.968
333.333 1680 -18.0461 -1.72651 -227.285 31.7017 0.0497564 244.681
333.333 1760 -34.9139 -3.34028 -203.902 32.0785 0.0749281 221.688
333.333 1840 -48.5786 -4.64761 -173.903 32.4375 0.0632232 192.186
333.333 1920 -57.1525 -5.46789 -150.337 32.5853 0.031012 169.003
333.333 2000 -59.9992 -5.74024 -141.809 32.5973 -1.49045e-016 160.608
333.333 2080 -57.1525 -5.46789 -150.337 32.5853 -0.031012 169.003
333.333 2160 -48.5786 -4.64761 -173.903 32.4375 -0.0632232 192.186
333.333 2240 -34.9139 -3.34028 -203.902 32.0785 -0.0749281 221.688
333.333 2320 -18.0461 -1.72651 -227.285 31.7017 -0.0497564 244.681
333.333 2400 3.71605e-014 3.55522e-015 -235.714 31.5483 -8.40711e-017 252.968
500 0 0 0 -235.208 0.399278 0 235.408
500 80 -12.8274 -1.22722 -226.906 0.437221 -0.419047 227.126
500 160 -24.9031 -2.38252 -203.943 0.538273 -0.599095 204.216
500 240 -34.7456 -3.32418 -174.302 0.657392 -0.391971 174.633
500 320 -40.9233 -3.91522 -150.549 0.739489 -0.084049 150.92
500 400 -42.9689 -4.11092 -141.77 0.765611 -9.55628e-016 142.154
500 480 -40.9233 -3.91522 -150.549 0.739489 0.084049 150.92
500 560 -34.7456 -3.32418 -174.302 0.657392 0.391971 174.633
500 640 -24.9031 -2.38252 -203.943 0.538273 0.599095 204.216
500 720 -12.8274 -1.22722 -226.906 0.437221 0.419047 227.126
500 800 1.7915e-014 1.71397e-015 -235.208 0.399278 3.53911e-016 235.408
500 880 12.8274 1.22722 -226.906 0.437221 0.419047 227.126
500 960 24.9031 2.38252 -203.943 0.538273 0.599095 204.216
500 1040 34.7456 3.32418 -174.302 0.657392 0.391971 174.633
500 1120 40.9233 3.91522 -150.549 0.739489 0.084049 150.92
500 1200 42.9689 4.11092 -141.77 0.765611 1.04255e-015 142.154
500 1280 40.9233 3.91522 -150.549 0.739489 -0.084049 150.92
500 1360 34.7456 3.32418 -174.302 0.657392 -0.391971 174.633
500 1440 24.9031 2.38252 -203.943 0.538273 -0.599095 204.216
500 1520 12.8274 1.22722 -226.906 0.437221 -0.419047 227.126
500 1600 -1.00641e-014 -9.62851e-016 -235.208 0.399278 -8.55598e-016 235.408
500 1680 -12.8274 -1.22722 -226.906 0.437221 -0.419047 227.126
500 1760 -24.9031 -2.38252 -203.943 0.538273 -0.599095 204.216
500 1840 -34.7456 -3.32418 -174.302 0.657392 -0.391971 174.633
500 1920 -40.9233 -3.91522 -150.549 0.739489 -0.084049 150.92
500 2000 -42.9689 -4.11092 -141.77 0.765611 -8.89493e-016 142.154
500 2080 -40.9233 -3.91522 -150.549 0.739489 0.084049 150.92
500 2160 -34.7456 -3.32418 -174.302 0.657392 0.391971 174.633
500 2240 -24.9031 -2.38252 -203.943 0.538273 0.599095 204.216
500 2320 -12.8274 -1.22722 -226.906 0.437221 0.419047 227.126
500 2400 2.63234e-014 2.51841e-015 -235.208 0.399278 7.07823e-016 235.408
666.667 0 0 0 -234.45 -31.5056 0 220.392
666.667 80 -0.000870929 -8.33234e-005 -226.302 -31.6553 -0.130482 212.252
666.667 160 -0.152088 -0.0145506 -203.902 -32.0108 -0.238198 189.931
666.667 240 -0.386215 -0.0369499 -174.826 -32.3217 -0.246914 161.115
666.667 320 -0.547072 -0.0523395 -150.969 -32.4132 -0.14428 137.655
666.667 400 -0.593936 -0.056823 -141.932 -32.3997 1.08187e-016 128.825
666.667 480 -0.547072 -0.0523395 -150.969 -32.4132 0.14428 137.655
666.667 560 -0.386215 -0.0369499 -174.826 -32.3217 0.246914 161.115
666.667 640 -0.152088 -0.0145506 -203.902 -32.0108 0.238198 189.931
666.667 720 -0.000870929 -8.33234e-005 -226.302 -31.6553 0.130482 212.252
666.667 800 -4.95269e-017 -4.73833e-018 -234.45 -31.5056 1.01053e-016 220.392
666.667 880 0.000870929 8.33234e-005 -226.302 -31.6553 0.130482 212.252
666.667 960 0.152088 0.0145506 -203.902 -32.0108 0.238198 189.931
666.667 1040 0.386215 0.0369499 -174.826 -32.3217 0.246914 161.115
666.667 1120 0.547072 0.0523395 -150.969 -32.4132 0.14428 137.655
666.667 1200 0.593936 0.056823 -141.932 -32.3997 3.11073e-016 128.825
666.667 1280 0.547072 0.0523395 -150.969 -32.4132 -0.14428 137.655
666.667 1360 0.386215 0.0369499 -174.826 -32.3217 -0.246914 161.115
666.667 1440 0.152088 0.0145506 -203.902 -32.0108 -0.238198 189.931
666.667 1520 0.000870929 8.33234e-005 -226.302 -31.6553 -0.130482 212.252
666.667 1600 2.78226e-017 2.66184e-018 -234.45 -31.5056 -2.48456e-016 220.392
666.667 1680 -0.000870929 -8.33234e-005 -226.302 -31.6553 -0.130482 212.252
666.667 1760 -0.152088 -0.0145506 -203.902 -32.0108 -0.238198 189.931
666.667 1840 -0.386215 -0.0369499 -174.826 -32.3217 -0.246914 161.115
666.667 1920 -0.547072 -0.0523395 -150.969 -32.4132 -0.14428 137.655
666.667 2000 -0.593936 -0.056823 -141.932 -32.3997 7.27623e-016 128.825
666.667 2080 -0.547072 -0.0523395 -150.969 -32.4132 0.14428 137.655
666.667 2160 -0.386215 -0.0369499 -174.826 -32.3217 0.246914 161.115
666.667 2240 -0.152088 -0.0145506 -203.902 -32.0108 0.238198 189.931
666.667 2320 -0.000870929 -8.33234e-005 -226.302 -31.6553 0.130482 212.252
666.667 2400 -1.67382e-016 -1.60138e-017 -234.45 -31.5056 2.02106e-016 220.392
833.333 0 0 0 -234.746 -0.298441 0 234.597
833.333 80 12.8436 1.22878 -226.444 -0.306713 0.265348 226.291
833.333 160 24.6497 2.35828 -203.689 -0.336317 0.314639 203.522
833.333 240 34.0639 3.25896 -174.497 -0.386261 0.0916087 174.305
833.333 320 39.9486 3.82196 -151.034 -0.434944 -0.0952266 150.817
833.333 400 41.91 4.00961 -142.304 -0.455004 1.06246e-015 142.078
833.333 480 39.9486 3.82196 -151.034 -0.434944 0.0952266 150.817
833.333 560 34.0639 3.25896 -174.497 -0.386261 -0.0916087 174.305
833.333 640 24.6497 2.35828 -203.689 -0.336317 -0.314639 203.522
833.333 720 12.8436 1.22878 -226.444 -0.306713 -0.265348 226.291
833.333 800 -1.80341e-014 -1.72536e-015 -234.746 -0.298441 -2.3561e-016 234.597
833.333 880 -12.8436 -1.22878 -226.444 -0.306713 -0.265348 226.291
833.333 960 -24.6497 -2.35828 -203.689 -0.336317 -0.314639 203.522
833.333 1040 -34.0639 -3.25896 -174.497 -0.386261 -0.0916087 174.305
833.333 1120 -39.9486 -3.82196 -151.034 -0.434944 0.0952266 150.817
833.333 1200 -41.91 -4.00961 -142.304 -0.455004 -6.2428e-016 142.078
833.333 1280 -39.9486 -3.82196 -151.034 -0.434944 -0.0952266 150.817
833.333 1360 -34.0639 -3.25896 -174.497 -0.386261 0.0916087 174.305
833.333 1440 -24.6497 -2.35828 -203.689 -0.336317 0.314639 203.522
833.333 1520 -12.8436 -1.22878 -226.444 -0.306713 0.265348 226.291
833.333 1600 1.0131e-014 9.69248e-016 -234.746 -0.298441 5.64133e-016 234.597
833.333 1680 12.8436 1.22878 -226.444 -0.306713 0.265348 226.291
833.333 1760 24.6497 2.35828 -203.689 -0.336317 0.314639 203.522
833.333 1840 34.0639 3.25896 -174.497 -0.386261 0.0916087 174.305
833.333 1920 39.9486 3.82196 -151.034 -0.434944 -0.0952266 150.817
833.333 2000 41.91 4.00961 -142.304 -0.455004 1.7739e-015 142.078
833.333 2080 39.9486 3.82196 -151.034 -0.434944 0.0952266 150.817
833.333 2160 34.0639 3.25896 -174.497 -0.386261 -0.0916087 174.305
833.333 2240 24.6497 2.35828 -203.689 -0.336317 -0.314639 203.522
833.333 2320 12.8436 1.22878 -226.444 -0.306713 -0.265348 226.291
833.333 2400 -2.6675e-014 -2.55205e-015 -234.746 -0.298441 -4.71219e-016 234.597
1000 0 0 0 -235.151 30.8242 0 251.981
1000 80 18.0895 1.73066 -226.706 30.9326 9.92947e-017 243.65
1000 160 34.7556 3.32514 -203.56 31.1795 1.2319e-016 220.807
1000 240 48.0812 4.60002 -174.132 31.3656 4.6683e-017 191.749
1000 320 56.4253 5.39832 -150.96 31.3749 -2.43904e-017 168.849
1000 400 59.208 5.66455 -142.509 31.3365 4.41981e-031 160.489
1000 480 56.4253 5.39832 -150.96 31.3749 2.43904e-017 168.849
1000 560 48.0812 4.60002 -174.132 31.3656 -4.6683e-017 191.749
1000 640 34.7556 3.32514 -203.56 31.1795 -1.2319e-016 220.807
1000 720 18.0895 1.73066 -226.706 30.9326 -9.92947e-017 243.65
1000 800 -2.53879e-014 -2.42891e-015 -235.151 30.8242 -8.71135e-032 251.981
1000 880 -18.0895 -1.73066 -226.706 30.9326 -9.92947e-017 243.65
1000 960 -34.7556 -3.32514 -203.56 31.1795 -1.2319e-016 220.807
1000 1040 -48.0812 -4.60002 -174.132 31.3656 -4.6683e-017 191.749
1000 1120 -56.4253 -5.39832 -150.96 31.3749 2.43904e-017 168.849
1000 1200 -59.208 -5.66455 -142.509 31.3365 -3.15093e-031 160.489
1000 1280 -56.4253 -5.39832 -150.96 31.3749 -2.43904e-017 168.849
1000 1360 -48.0812 -4.60002 -174.132 31.3656 4.6683e-017 191.749
1000 1440 -34.7556 -3.32514 -203.56 31.1795 1.2319e-016 220.807
1000 1520 -18.0895 -1.73066 -226.706 30.9326 9.92947e-017 243.65
1000 1600 1.42621e-014 1.36448e-015 -235.151 30.8242 2.0848e-031 251.981
1000 1680 18.0895 1.73066 -226.706 30.9326 9.92947e-017 243.65
1000 1760 34.7556 3.32514 -203.56 31.1795 1.2319e-016 220.807
1000 1840 48.0812 4.60002 -174.132 31.3656 4.6683e-017 191.749
1000 1920 56.4253 5.39832 -150.96 31.3749 -2.43904e-017 168.849
1000 2000 59.208 5.66455 -142.509 31.3365 6.51967e-031 160.489
1000 2080 56.4253 5.39832 -150.96 31.3749 2.43904e-017 168.849
1000 2160 48.0812 4.60002 -174.132 31.3656 -4.6683e-017 191.749
1000 2240 34.7556 3.32514 -203.56 31.1795 -1.2319e-016 220.807
1000 2320 18.0895 1.73066 -226.706 30.9326 -9.92947e-017 243.65
1000 2400 -3.75163e-014 -3.58925e-015 -235.151 30.8242 -1.74227e-031 251.981
1166.67 0 0 0 -234.746 -0.298441 0 234.597
1166.67 80 12.8436 1.22878 -226.444 -0.306713 -0.265348 226.291
1166.67 160 24.6497 2.35828 -203.689 -0.336317 -0.314639 203.522
1166.67 240 34.0639 3.25896 -174.497 -0.386261 -0.0916087 174.305
1166.67 320 39.9486 3.82196 -151.034 -0.434944 0.0952266 150.817
1166.67 400 41.91 4.00961 -142.304 -0.455004 -1.06246e-015 142.078
1166.67 480 39.9486 3.82196 -151.034 -0.434944 -0.0952266 150.817
1166.67 560 34.0639 3.25896 -174.497 -0.386261 0.0916087 174.305
1166.67 640 24.6497 2.35828 -203.689 -0.336317 0.314639 203.522
1166.67 720 12.8436 1.22878 -226.444 -0.306713 0.265348 226.291
1166.67 800 -1.80341e-014 -1.72536e-015 -234.746 -0.298441 2.3561e-016 234.597
1166.67 880 -12.8436 -1.22878 -226.444 -0.306713 0.265348 226.291
1166.67 960 -24.6497 -2.35828 -203.689 -0.336317 0.314639 203.522
1166.67 1040 -34.0639 -3.25896 -174.497 -0.386261 0.0916087 174.305
1166.67 1120 -39.9486 -3.82196 -151.034 -0.434944 -0.0952266 150.817
1166.67 1200 -41.91 -4.00961 -142.304 -0.455004 6.2428e-016 142.078
1166.67 1280 -39.9486 -3.82196 -151.034 -0.434944 0.0952266 150.817
1166.67 1360 -34.0639 -3.25896 -174.497 -0.386261 -0.0916087 174.305
1166.67 1440 -24.6497 -2.35828 -203.689 -0.336317 -0.314639 203.522
1166.67 1520 -12.8436 -1.22878 -226.444 -0.306713 -0.265348 226.291
1166.67 1600 1.0131e-014 9.69248e-016 -234.746 -0.298441 -5.64133e-016 234.597
1166.67 1680 12.8436 1.22878 -226.444 -0.306713 -0.265348 226.291
1166.67 1760 24.6497 2.35828 -203.689 -0.336317 -0.314639 203.522
1166.67 1840 34.0639 3.25896 -174.497 -0.386261 -0.0916087 174.305
1166.67 1920 39.9486 3.82196 -151.034 -0.434944 0.0952266 150.817
1166.67 2000 41.91 4.00961 -142.304 -0.455004 -1.7739e-015 142.078
1166.67 2080 39.9486 3.82196 -151.034 -0.434944 -0.0952266 150.817
1166.67 2160 34.0639 3.25896 -174.497 -0.386261 0.0916087 174.305
1166.67 2240 24.6497 2.35828 -203.689 -0.336317 0.314639 203.522
1166.67 2320 12.8436 1.22878 -226.444 -0.306713 0.265348 226.291
1166.67 2400 -2.6675e-014 -2.55205e-015 -234.746 -0.298441 4.71219e-016 234.597
1333.33 0 0 0 -234.45 -31.5056 0 220.392
1333.33 80 -0.000870929 -8.33234e-005 -226.302 -31.6553 0.130482 212.252
1333.33 160 -0.152088 -0.0145506 -203.902 -32.0108 0.238198 189.931
1333.33 240 -0.386215 -0.0369499 -174.826 -32.3217 0.246914 161.115
1333.33 320 -0.547072 -0.0523395 -150.969 -32.4132 0.14428 137.655
1333.33 400 -0.593936 -0.056823 -141.932 -32.3997 -1.08187e-016 128.825
1333.33 480 -0.547072 -0.0523395 -150.969 -32.4132 -0.14428 137.655
1333.33 560 -0.386215 -0.0369499 -174.826 -32.3217 -0.246914 161.115
1333.33 640 -0.152088 -0.0145506 -203.902 -32.0108 -0.238198 189.931
1333.33 720 -0.000870929 -8.33234e-005 -226.302 -31.6553 -0.130482 212.252
1333.33 800 -4.95269e-017 -4.73833e-018 -234.45 -31.5056 -1.01053e-016 220.392
1333.33 880 0.000870929 8.33234e-005 -226.302 -31.6553 -0.130482 212.252
1333.33 960 0.152088 0.0145506 -203.902 -32.0108 -0.238198 189.931
1333.33 1040 0.386215 0.0369499 -174.826 -32.3217 -0.246914 161.115
1333.33 1120 0.547072 0.0523395 -150.969 -32.4132 -0.14428 137.655
1333.33 1200 0.593936 0.056823 -141.932 -32.3997 -3.11073e-016 128.825
1333.33 1280 0.547072 0.0523395 -150.969 -32.4132 0.14428 137.655
1333.33 1360 0.386215 0.0369499 -174.826 -32.3217 0.246914 161.115
1333.33 1440 0.152088 0.0145506 -203.902 -32.0108 0.238198 189.931
1333.33 1520 0.000870929 8.33234e-005 -226.302 -31.6553 0.130482 212.252
1333.33 1600 2.78226e-017 2.66184e-018 -234.45 -31.5056 2.48456e-016 220.392
1333.33 1680 -0.000870929 -8.33234e-005 -226.302 -31.6553 0.130482 212.252
1333.33 1760 -0.152088 -0.0145506 -203.902 -32.0108 0.238198 189.931
1333.33 1840 -0.386215 -0.0369499 -174.826 -32.3217 0.246914 161.115
1333.33 1920 -0.547072 -0.0523395 -150.969 -32.4132 0.14428 137.655
1333.33 2000 -0.593936 -0.056823 -141.932 -32.3997 -7.27623e-016 128.825
1333.33 2080 -0.547072 -0.0523395 -150.969 -32.4132 -0.14428 137.655
1333.33 2160 -0.386215 -0.0369499 -174.826 -32.3217 -0.246914 161.115
1333.33 2240 -0.152088 -0.0145506 -203.902 -32.0108 -0.238198 189.931
1333.33 2320 -0.000870929 -8.33234e-005 -226.302 -31.6553 -0.130482 212.252
1333.33 2400 -1.67382e-016 -1.60138e-017 -234.45 -31.5056 -2.02106e-016 220.392
1500 0 0 0 -235.208 0.399278 0 235.408
1500 80 -12.8274 -1.22722 -226.906 0.437221 0.419047 227.126
1500 160 -24.9031 -2.38252 -203.943 0.538273 0.599095 204.216
1500 240 -34.7456 -3.32418 -174.302 0.657392 0.391971 174.633
1500 320 -40.9233 -3.91522 -150.549 0.739489 0.084049 150.92
1500 400 -42.9689 -4.11092 -141.77 0.765611 9.55628e-016 142.154
1500 480 -40.9233 -3.91522 -150.549 0.739489 -0.084049 150.92
1500 560 -34.7456 -3.32418 -174.302 0.657392 -0.391971 174.633
1500 640 -24.9031 -2.38252 -203.943 0.538273 -0.599095 204.216
1500 720 -12.8274 -1.22722 -226.906 0.437221 -0.419047 227.126
1500 800 1.7915e-014 1.71397e-015 -235.208 0.399278 -3.53911e-016 235.408
1500 880 12.8274 1.22722 -226.906 0.437221 -0.419047 227.126
1500 960 24.9031 2.38252 -203.943 0.538273 -0.599095 204.216
1500 1040 34.7456 3.32418 -174.302 0.657392 -0.391971 174.633
1500 1120 40.9233 3.91522 -150.549 0.739489 -0.084049 150.92
1500 1200 42.9689 4.11092 -141.77 0.765611 -1.04255e-015 142.154
1500 1280 40.9233 3.91522 -150.549 0.739489 0.084049 150.92
1500 1360 34.7456 3.32418 -174.302 0.657392 0.391971 174.633
1500 1440 24.9031 2.38252 -203.943 0.538273 0.599095 204.216
1500 1520 12.8274 1.22722 -226.906 0.437221 0.419047 227.126
1500 1600 -1.00641e-014 -9.62851e-016 -235.208 0.399278 8.55598e-016 235.408
1500 1680 -12.8274 -1.22722 -226.906 0.437221 0.419047 227.126
1500 1760 -24.9031 -2.38252 -203.943 0.538273 0.599095 204.216
1500 1840 -34.7456 -3.32418 -174.302 0.657392 0.391971 174.633
1500 1920 -40.9233 -3.91522 -150.549 0.739489 0.084049 150.92
1500 2000 -42.9689 -4.11092 -141.77 0.765611 8.89493e-016 142.154
1500 2080 -40.9233 -3.91522 -150.549 0.739489 -0.084049 150.92
1500 2160 -34.7456 -3.32418 -174.302 0.657392 -0.391971 174.633
1500 2240 -24.9031 -2.38252 -203.943 0.538273 -0.599095 204.216
1500 2320 -12.8274 -1.22722 -226.906 0.437221 -0.419047 227.126
1500 2400 2.63234e-014 2.51841e-015 -235.208 0.399278 -7.07823e-016 235.408
1666.67 0 0 0 -235.714 31.5483 0 252.968
1666.67 80 -18.0461 -1.72651 -227.285 31.7017 -0.0497564 244.681
1666.67 160 -34.9139 -3.34028 -203.902 32.0785 -0.0749281 221.688
1666.67 240 -48.5786 -4.64761 -173.903 32.4375 -0.0632232 192.186
1666.67 320 -57.1525 -5.46789 -150.337 32.5853 -0.031012 169.003
1666.67 400 -59.9992 -5.74024 -141.809 32.5973 2.61054e-017 160.608
1666.67 480 -57.1525 -5.46789 -150.337 32.5853 0.031012 169.003
1666.67 560 -48.5786 -4.64761 -173.903 32.4375 0.0632232 192.186
1666.67 640 -34.9139 -3.34028 -203.902 32.0785 0.0749281 221.688
1666.67 720 -18.0461 -1.72651 -227.285 31.7017 0.0497564 244.681
1666.67 800 2.52451e-014 2.41525e-015 -235.714 31.5483 4.20355e-017 252.968
1666.67 880 18.0461 1.72651 -227.285 31.7017 0.0497564 244.681
1666.67 960 34.9139 3.34028 -203.902 32.0785 0.0749281 221.688
1666.67 1040 48.5786 4.64761 -173.903 32.4375 0.0632232 192.186
1666.67 1120 57.1525 5.46789 -150.337 32.5853 0.031012 169.003
1666.67 1200 59.9992 5.74024 -141.809 32.5973 5.69514e-017 160.608
1666.67 1280 57.1525 5.46789 -150.337 32.5853 -0.031012 169.003
1666.67 1360 48.5786 4.64761 -173.903 32.4375 -0.0632232 192.186
1666.67 1440 34.9139 3.34028 -203.902 32.0785 -0.0749281 221.688
1666.67 1520 18.0461 1.72651 -227.285 31.7017 -0.0497564 244.681
1666.67 1600 -1.41819e-014 -1.35681e-015 -235.714 31.5483 -1.07301e-016 252.968
1666.67 1680 -18.0461 -1.72651 -227.285 31.7017 -0.0497564 244.681
1666.67 1760 -34.9139 -3.34028 -203.902 32.0785 -0.0749281 221.688
1666.67 1840 -48.5786 -4.64761 -173.903 32.4375 -0.0632232 192.186
1666.67 1920 -57.1525 -5.46789 -150.337 32.5853 -0.031012 169.003
1666.67 2000 -59.9992 -5.74024 -141.809 32.5973 1.49045e-016 160.608
1666.67 2080 -57.1525 -5.46789 -150.337 32.5853 0.031012 169.003
1666.67 2160 -48.5786 -4.64761 -173.903 32.4375 0.0632232 192.186
1666.67 2240 -34.9139 -3.34028 -203.902 32.0785 0.0749281 221.688
1666.67 2320 -18.0461 -1.72651 -227.285 31.7017 0.0497564 244.681
1666.67 2400 3.71605e-014 3.55522e-015 -235.714 31.5483 8.40711e-017 252.968
1833.33 0 0 0 -235.052 0.135213 0 235.12
1833.33 80 -12.8016 -1.22476 -226.784 0.130342 -0.428273 226.85
1833.33 160 -24.7483 -2.36772 -203.921 0.120182 -0.61444 203.984
1833.33 240 -34.4073 -3.29181 -174.382 0.110839 -0.404665 174.439
1833.33 320 -40.4588 -3.87077 -150.649 0.103723 -0.088626 150.701
1833.33 400 -42.4665 -4.06285 -141.855 0.10069 -9.60697e-016 141.905
1833.33 480 -40.4588 -3.87077 -150.649 0.103723 0.088626 150.701
1833.33 560 -34.4073 -3.29181 -174.382 0.110839 0.404665 174.439
1833.33 640 -24.7483 -2.36772 -203.921 0.120182 0.61444 203.984
1833.33 720 -12.8016 -1.22476 -226.784 0.130342 0.428273 226.85
1833.33 800 1.79144e-014 1.7139e-015 -235.052 0.135213 3.61298e-016 235.12
1833.33 880 12.8016 1.22476 -226.784 0.130342 0.428273 226.85
1833.33 960 24.7483 2.36772 -203.921 0.120182 0.61444 203.984
1833.33 1040 34.4073 3.29181 -174.382 0.110839 0.404665 174.439
1833.33 1120 40.4588 3.87077 -150.649 0.103723 0.088626 150.701
1833.33 1200 42.4665 4.06285 -141.855 0.10069 1.05781e-015 141.905
1833.33 1280 40.4588 3.87077 -150.649 0.103723 -0.088626 150.701
1833.33 1360 34.4073 3.29181 -174.382 0.110839 -0.404665 174.439
1833.33 1440 24.7483 2.36772 -203.921 0.120182 -0.61444 203.984
1833.33 1520 12.8016 1.22476 -226.784 0.130342 -0.428273 226.85
1833.33 1600 -1.00637e-014 -9.62815e-016 -235.052 0.135213 -8.7259e-016 235.12
1833.33 1680 -12.8016 -1.22476 -226.784 0.130342 -0.428273 226.85
1833.33 1760 -24.7483 -2.36772 -203.921 0.120182 -0.61444 203.984
1833.33 1840 -34.4073 -3.29181 -174.382 0.110839 -0.404665 174.439
1833.33 1920 -40.4588 -3.87077 -150.649 0.103723 -0.088626 150.701
1833.33 2000 -42.4665 -4.06285 -141.855 0.10069 -8.81282e-016 141.905
1833.33 2080 -40.4588 -3.87077 -150.649 0.103723 0.088626 150.701
1833.33 2160 -34.4073 -3.29181 -174.382 0.110839 0.404665 174.439
1833.33 2240 -24.7483 -2.36772 -203.921 0.120182 0.61444 203.984
1833.33 2320 -12.8016 -1.22476 -226.784 0.130342 0.428273 226.85
1833.33 2400 2.63901e-014 2.52479e-015 -235.052 0.135213 7.22597e-016 235.12
2000 0 0 0 -234.444 -31.3816 0 220.435
2000 80 -6.67219e-015 -6.38342e-016 -226.318 -31.5472 -3.10057e-016 212.309
2000 160 -1.28888e-014 -1.23309e-015 -203.942 -31.959 -4.47374e-016 189.989
2000 240 -1.7906e-014 -1.7131e-015 -174.84 -32.3611 -2.94562e-016 161.116
2000 320 -2.10462e-014 -2.01353e-015 -150.932 -32.5356 -6.26915e-017 137.58
2000 400 -2.20877e-014 -2.11317e-015 -141.87 -32.5543 -5.94407e-031 128.719
2000 480 -2.10462e-014 -2.01353e-015 -150.932 -32.5356 6.26915e-017 137.58
2000 560 -1.7906e-014 -1.7131e-015 -174.84 -32.3611 2.94562e-016 161.116
2000 640 -1.28888e-014 -1.23309e-015 -203.942 -31.959 4.47374e-016 189.989
2000 720 -6.67219e-015 -6.38342e-016 -226.318 -31.5472 3.10057e-016 212.309
2000 800 9.34017e-030 8.93593e-031 -234.444 -31.3816 2.60668e-031 220.435
2000 880 6.67219e-015 6.38342e-016 -226.318 -31.5472 3.10057e-016 212.309
2000 960 1.28888e-014 1.23309e-015 -203.942 -31.959 4.47374e-016 189.989
2000 1040 1.7906e-014 1.7131e-015 -174.84 -32.3611 2.94562e-016 161.116
2000 1120 2.10462e-014 2.01353e-015 -150.932 -32.5356 6.26915e-017 137.58
2000 1200 2.20877e-014 2.11317e-015 -141.87 -32.5543 6.58332e-031 128.719
2000 1280 2.10462e-014 2.01353e-015 -150.932 -32.5356 -6.26915e-017 137.58
2000 1360 1.7906e-014 1.7131e-015 -174.84 -32.3611 -2.94562e-016 161.116
2000 1440 1.28888e-014 1.23309e-015 -203.942 -31.959 -4.47374e-016 189.989
2000 1520 6.67219e-015 6.38342e-016 -226.318 -31.5472 -3.10057e-016 212.309
2000 1600 -5.247e-030 -5.01991e-031 -234.444 -31.3816 -6.26636e-031 220.435
2000 1680 -6.67219e-015 -6.38342e-016 -226.318 -31.5472 -3.10057e-016 212.309
2000 1760 -1.28888e-014 -1.23309e-015 -203.942 -31.959 -4.47374e-016 189.989
2000 1840 -1.7906e-014 -1.7131e-015 -174.84 -32.3611 -2.94562e-016 161.116
2000 1920 -2.10462e-014 -2.01353e-015 -150.932 -32.5356 -6.26915e-017 137.58
2000 2000 -2.20877e-014 -2.11317e-015 -141.87 -32.5543 -5.48981e-031 128.719
2000 2080 -2.10462e-014 -2.01353e-015 -150.932 -32.5356 6.26915e-017 137.58
2000 2160 -1.7906e-014 -1.7131e-015 -174.84 -32.3611 2.94562e-016 161.116
2000 2240 -1.28888e-014 -1.23309e-015 -203.942 -31.959 4.47374e-016 189.989
2000 2320 -6.67219e-015 -6.38342e-016 -226.318 -31.5472 3.10057e-016 212.309
2000 2400 1.37681e-029 1.31722e-030 -234.444 -31.3816 5.21336e-031 220.435
0 800 0 0 -234.994 0 0 234.994
0 800 88.25 0 -227.342 0 0 227.342
0 800 176.5 0 -220.429 0 0 220.429
0 800 264.75 0 -223.375 0 0 223.375
0 800 353 0 -232.524 0 0 232.524
166.667 800 0 0 -234.994 0 0 234.994
166.667 789.956 88.25 -0.960883 -231.233 0 0 231.233
166.667 787.667 176.5 -1.17994 -227.823 0 0 227.823
166.667 791.312 264.75 -0.831221 -229.257 0 0 229.257
166.667 798.168 353 -0.17523 -233.763 0 0 233.763
333.333 800 0 0 -234.994 0 0 234.994
333.333 785.847 88.25 -1.35408 -234.994 0 0 234.994
333.333 782.62 176.5 -1.66276 -234.994 0 0 234.994
333.333 787.757 264.75 -1.17133 -234.994 0 0 234.994
333.333 797.42 353 -0.246872 -234.994 0 0 234.994
500 800 0 0 -234.994 0 0 234.994
500 789.959 88.25 -0.960661 -231.223 0 0 231.223
500 787.677 176.5 -1.17899 -227.798 0 0 227.798
500 791.333 264.75 -0.829163 -229.225 0 0 229.225
500 798.204 353 -0.171853 -233.731 0 0 233.731
666.667 800 0 0 -234.994 0 0 234.994
666.667 800.033 88.25 0.00312553 -227.294 0 0 227.294
666.667 800.053 176.5 0.00506684 -220.337 0 0 220.337
666.667 800.064 264.75 0.00610178 -223.294 0 0 223.294
666.667 800.069 353 0.00664619 -232.482 0 0 232.482
833.333 800 0 0 -234.994 0 0 234.994
833.333 810.117 88.25 0.967936 -231.209 0 0 231.209
833.333 812.441 176.5 1.19026 -227.777 0 0 227.777
833.333 808.8 264.75 0.841911 -229.216 0 0 229.216
833.333 801.931 353 0.184721 -233.739 0 0 233.739
1000 800 0 0 -234.994 0 0 234.994
1000 814.242 88.25 1.36251 -234.994 0 0 234.994
1000 817.509 176.5 1.67515 -234.994 0 0 234.994
1000 812.378 264.75 1.18424 -234.994 0 0 234.994
1000 802.702 353 0.258464 -234.994 0 0 234.994
1166.67 800 0 0 -234.994 0 0 234.994
1166.67 810.117 88.25 0.967936 -231.209 0 0 231.209
1166.67 812.441 176.5 1.19026 -227.777 0 0 227.777
1166.67 808.8 264.75 0.841911 -229.216 0 0 229.216
1166.67 801.931 353 0.184721 -233.739 0 0 233.739
1333.33 800 0 0 -234.994 0 0 234.994
1333.33 800.033 88.25 0.00312553 -227.294 0 0 227.294
1333.33 800.053 176.5 0.00506684 -220.337 0 0 220.337
1333.33 800.064 264.75 0.00610178 -223.294 0 0 223.294
1333.33 800.069 353 0.00664619 -232.482 0 0 232.482
1500 800 0 0 -234.994 0 0 234.994
1500 789.959 88.25 -0.960661 -231.223 0 0 231.223
1500 787.677 176.5 -1.17899 -227.798 0 0 227.798
1500 791.333 264.75 -0.829163 -229.225 0 0 229.225
1500 798.204 353 -0.171853 -233.731 0 0 233.731
1666.67 800 0 0 -234.994 0 0 234.994
1666.67 785.847 88.25 -1.35408 -234.994 0 0 234.994
1666.67 782.62 176.5 -1.66276 -234.994 0 0 234.994
1666.67 787.757 264.75 -1.17133 -234.994 0 0 234.994
1666.67 797.42 353 -0.246872 -234.994 0 0 234.994
1833.33 800 0 0 -234.994 0 0 234.994
1833.33 789.956 88.25 -0.960883 -231.233 0 0 231.233
1833.33 787.667 176.5 -1.17994 -227.823 0 0 227.823
1833.33 791.312 264.75 -0.831221 -229.257 0 0 229.257
1833.33 798.168 353 -0.17523 -233.763 0 0 233.763
2000 800 0 0 -234.994 0 0 234.994
2000 800 88.25 -5.00963e-016 -227.342 0 0 227.342
2000 800 176.5 -6.15115e-016 -220.429 0 0 220.429
2000 800 264.75 -4.33214e-016 -223.375 0 0 223.375
2000 800 353 -9.1091e-017 -232.524 0 0 232.524
0.642843 858.496 353 0 -234.994 0 0 234.994
-0.642843 741.504 353 0 -234.994 0 0 234.994
167.118 856.491 348.469 0 -234.994 0 0 234.994
166.215 739.846 357.531 0 -234.994 0 0 234.994
333.327 855.572 346.633 0 -234.994 0 0 234.994
333.339 739.267 359.367 0 -234.994 0 0 234.994
499.536 856.525 348.46 0 -234.994 0 0 234.994
500.464 739.882 357.54 0 -234.994 0 0 234.994
666.013 858.566 352.996 0 -234.994 0 0 234.994
667.321 741.573 353.004 0 -234.994 0 0 234.994
832.873 860.253 357.54 0 -234.994 0 0 234.994
833.794 743.609 348.46 0 -234.994 0 0 234.994
1000 860.853 359.376 0 -234.994 0 0 234.994
1000 744.55 346.624 0 -234.994 0 0 234.994
1167.13 860.253 357.54 0 -234.994 0 0 234.994
1166.21 743.609 348.46 0 -234.994 0 0 234.994
1333.99 858.566 352.996 0 -234.994 0 0 234.994
1332.68 741.573 353.004 0 -234.994 0 0 234.994
1500.46 856.525 348.46 0 -234.994 0 0 234.994
1499.54 739.882 357.54 0 -234.994 0 0 234.994
1666.67 855.572 346.633 0 -234.994 0 0 234.994
1666.66 739.267 359.367 0 -234.994 0 0 234.994
1832.88 856.491 348.469 0 -234.994 0 0 234.994
1833.78 739.846 357.531 0 -234.994 0 0 234.994
1999.36 858.496 353 0 -234.994 0 0 234.994
2000.64 741.504 353 0 -234.994 0 0 234.994
0 1600 0 0 -234.994 0 0 234.994
0 1600 88.25 0 -227.342 0 0 227.342
0 1600 176.5 0 -220.429 0 0 220.429
0 1600 264.75 0 -223.375 0 0 223.375
0 1600 353 0 -232.524 0 0 232.524
166.667 1600 0 0 -234.994 0 0 234.994
166.667 1610.04 88.25 0.960883 -231.233 0 0 231.233
166.667 1612.33 176.5 1.17994 -227.823 0 0 227.823
166.667 1608.69 264.75 0.831221 -229.257 0 0 229.257
166.667 1601.83 353 0.17523 -233.763 0 0 233.763
333.333 1600 0 0 -234.994 0 0 234.994
333.333 1614.15 88.25 1.35408 -234.994 0 0 234.994
333.333 1617.38 176.5 1.66276 -234.994 0 0 234.994
333.333 1612.24 264.75 1.17133 -234.994 0 0 234.994
333.333 1602.58 353 0.246872 -234.994 0 0 234.994
500 1600 0 0 -234.994 0 0 234.994
500 1610.04 88.25 0.960661 -231.223 0 0 231.223
500 1612.32 176.5 1.17899 -227.798 0 0 227.798
500 1608.67 264.75 0.829163 -229.225 0 0 229.225
500 1601.8 353 0.171853 -233.731 0 0 233.731
666.667 1600 0 0 -234.994 0 0 234.994
666.667 1599.97 88.25 -0.00312553 -227.294 0 0 227.294
666.667 1599.95 176.5 -0.00506684 -220.337 0 0 220.337
666.667 1599.94 264.75 -0.00610178 -223.294 0 0 223.294
666.667 1599.93 353 -0.00664619 -232.482 0 0 232.482
833.333 1600 0 0 -234.994 0 0 234.994
833.333 1589.88 88.25 -0.967936 -231.209 0 0 231.209
833.333 1587.56 176.5 -1.19026 -227.777 0 0 227.777
833.333 1591.2 264.75 -0.841911 -229.216 0 0 229.216
833.333 1598.07 353 -0.184721 -233.739 0 0 233.739
1000 1600 0 0 -234.994 0 0 234.994
1000 1585.76 88.25 -1.36251 -234.994 0 0 234.994
1000 1582.49 176.5 -1.67515 -234.994 0 0 234.994
1000 1587.62 264.75 -1.18424 -234.994 0 0 234.994
1000 1597.3 353 -0.258464 -234.994 0 0 234.994
1166.67 1600 0 0 -234.994 0 0 234.994
1166.67 1589.88 88.25 -0.967936 -231.209 0 0 231.209
1166.67 1587.56 176.5 -1.19026 -227.777 0 0 227.777
1166.67 1591.2 264.75 -0.841911 -229.216 0 0 229.216
1166.67 1598.07 353 -0.184721 -233.739 0 0 233.739
1333.33 1600 0 0 -234.994 0 0 234.994
1333.33 1599.97 88.25 -0.00312553 -227.294 0 0 227.294
1333.33 1599.95 176.5 -0.00506684 -220.337 0 0 220.337
1333.33 1599.94 264.75 -0.00610178 -223.294 0 0 223.294
1333.33 1599.93 353 -0.00664619 -232.482 0 0 232.482
1500 1600 0 0 -234.994 0 0 234.994
1500 1610.04 88.25 0.960661 -231.223 0 0 231.223
1500 1612.32 176.5 1.17899 -227.798 0 0 227.798
1500 1608.67 264.75 0.829163 -229.225 0 0 229.225
1500 1601.8 353 0.171853 -233.731 0 0 233.731
1666.67 1600 0 0 -234.994 0 0 234.994
1666.67 1614.15 88.25 1.35408 -234.994 0 0 234.994
1666.67 1617.38 176.5 1.66276 -234.994 0 0 234.994
1666.67 1612.24 264.75 1.17133 -234.994 0 0 234.994
1666.67 1602.58 353 0.246872 -234.994 0 0 234.994
1833.33 1600 0 0 -234.994 0 0 234.994
1833.33 1610.04 88.25 0.960883 -231.233 0 0 231.233
1833.33 1612.33 176.5 1.17994 -227.823 0 0 227.823
1833.33 1608.69 264.75 0.831221 -229.257 0 0 229.257
1833.33 1601.83 353 0.17523 -233.763 0 0 233.763
2000 1600 0 0 -234.994 0 0 234.994
2000 1600 88.25 5.00963e-016 -227.342 0 0 227.342
2000 1600 176.5 6.15115e-016 -220.429 0 0 220.429
2000 1600 264.75 4.33214e-016 -223.375 0 0 223.375
2000 1600 353 9.1091e-017 -232.524 0 0 232.524
-0.642843 1658.5 353 0 -234.994 0 0 234.994
0.642843 1541.5 353 0 -234.994 0 0 234.994
166.215 1660.15 357.531 0 -234.994 0 0 234.994
167.118 1543.51 348.469 0 -234.994 0 0 234.994
333.339 1660.73 359.367 0 -234.994 0 0 234.994
333.327 1544.43 346.633 0 -234.994 0 0 234.994
500.464 1660.12 357.54 0 -234.994 0 0 234.994
499.536 1543.47 348.46 0 -234.994 0 0 234.994
667.321 1658.43 353.004 0 -234.994 0 0 234.994
666.013 1541.43 352.996 0 -234.994 0 0 234.994
833.794 1656.39 348.46 0 -234.994 0 0 234.994
832.873 1539.75 357.54 0 -234.994 0 0 234.994
1000 1655.45 346.624 0 -234.994 0 0 234.994
1000 1539.15 359.376 0 -234.994 0 0 234.994
1166.21 1656.39 348.46 0 -234.994 0 0 234.994
1167.13 1539.75 357.54 0 -234.994 0 0 234.994
1332.68 1658.43 353.004 0 -234.994 0 0 234.994
1333.99 1541.43 352.996 0 -234.994 0 0 234.994
1499.54 1660.12 357.54 0 -234.994 0 0 234.994
1500.46 1543.47 348.46 0 -234.994 0 0 234.994
1666.66 1660.73 359.367 0 -234.994 0 0 234.994
1666.67 1544.43 346.633 0 -234.994 0 0 234.994
1833.78 1660.15 357.531 0 -234.994 0 0 234.994
1832.88 1543.51 348.469 0 -234.994 0 0 234.994
2000.64 1658.5 353 0 -234.994 0 0 234.994
1999.36 1541.5 353 0 -234.994 0 0 234.994
4 0 31 32 1 14 315
4 1 32 33 2 14 315
4 2 33 34 3 14 315
4 3 34 35 4 14 315
4 4 35 36 5 14 315
4 5 36 37 6 14 315
4 6 37 38 7 14 315
4 7 38 39 8 14 315
4 8 39 40 9 14 315
4 9 40 41 10 14 315
4 10 41 42 11 14 315
4 11 42 43 12 14 315
4 12 43 44 13 14 315
4 13 44 45 14 14 315
4 14 45 46 15 14 315
4 15 46 47 16 14 315
4 16 47 48 17 14 315
4 17 48 49 18 14 315
4 18 49 50 19 14 315
4 19 50 51 20 14 315
4 20 51 52 21 14 315
4 21 52 53 22 14 315
4 22 53 54 23 14 315
4 23 54 55 24 14 315
4 24 55 56 25 14 315
4 25 56 57 26 14 315
4 26 57 58 27 14 315
4 27 58 59 28 14 315
4 28 59 60 29 14 315
4 29 60 61 30 14 315
4 31 62 63 32 14 315
4 32 63 64 33 14 315
4 33 64 65 34 14 315
4 34 65 66 35 14 315
4 35 66 67 36 14 315
4 36 67 68 37 14 315
4 37 68 69 38 14 315
4 38 69 70 39 14 315
4 39 70 71 40 14 315
4 40 71 72 41 14 315
4 41 72 73 42 14 315
4 42 73 74 43 14 315
4 43 74 75 44 14 315
4 44 75 76 45 14 315
4 45 76 77 46 14 315
4 46 77 78 47 14 315
4 47 78 79 48 14 315
4 48 79 80 49 14 315
4 49 80 81 50 14 315
4 50 81 82 51 14 315
4 51 82 83 52 14 315
4 52 83 84 53 14 315
4 53 84 85 54 14 315
4 54 85 86 55 14 315
4 55 86 87 56 14 315
4 56 87 88 57 14 315
4 57 88 89 58 14 315
4 58 89 90 59 14 315
4 59 90 91 60 14 315
4 60 91 92 61 14 315
4 62 93 94 63 14 315
4 63 94 95 64 14 315
4 64 95 96 65 14 315
4 65 96 97 66 14 315
4 66 97 98 67 14 315
4 67 98 99 68 14 315
4 68 99 100 69 14 315
4 69 100 101 70 14 315
4 70 101 102 71 14 315
4 71 102 103 72 14 315
4 72 103 104 73 14 315
4 73 104 105 74 14 315
4 74 105 106 75 14 315
4 75 106 107 76 14 315
4 76 107 108 77 14 315
4 77 108 109 78 14 315
4 78 109 110 79 14 315
4 79 110 111 80 14 315
4 80 111 112 81 14 315
4 81 112 113 82 14 315
4 82 113 114 83 14 315
4 83 114 115 84 14 315
4 84 115 116 85 14 315
4 85 116 117 86 14 315
4 86 117 118 87 14 315
4 87 118 119 88 14 315
4 88 119 120 89 14 315
4 89 120 121 90 14 315
4 90 121 122 91 14 315
4 91 122 123 92 14 315
4 93 124 125 94 14 315
4 94 125 126 95 14 315
4 95 126 127 96 14 315
4 96 127 128 97 14 315
4 97 128 129 98 14 315
4 98 129 130 99 14 315
4 99 130 131 100 14 315
4 100 131 132 101 14 315
4 101 132 133 102 14 315
4 102 133 134 103 14 315
4 103 134 135 104 14 315
4 104 135 136 105 14 315
4 105 136 137 106 14 315
4 106 137 138 107 14 315
4 107 138 139 108 14 315
4 108 139 140 109 14 315
4 109 140 141 110 14 315
4 110 141 142 111 14 315
4 111 142 143 112 14 315
4 112 143 144 113 14 315
4 113 144 145 114 14 315
4 114 145 146 115 14 315
4 115 146 147 116 14 315
4 116 147 148 117 14 315
4 117 148 149 118 14 315
4 118 149 150 119 14 315
4 119 150 151 120 14 315
4 120 151 152 121 14 315
4 121 152 153 122 14 315
4 122 153 154 123 14 315
4 124 155 156 125 14 315
4 125 156 157 126 14 315
4 126 157 158 127 14 315
4 127 158 159 128 14 315
4 128 159 160 129 14 315
4 129 160 161 130 14 315
4 130 161 162 131 14 315
4 131 162 163 132 14 315
4 132 163 164 133 14 315
4 133 164 165 134 14 315
4 134 165 166 135 14 315
4 135 166 167 136 14 315
4 136 167 168 137 14 315
4 137 168 169 138 14 315
4 138 169 170 139 14 315
4 139 170 171 140 14 315
4 140 171 172 141 14 315
4 141 172 173 142 14 315
4 142 173 174 143 14 315
4 143 174 175 144 14 315
4 144 175 176 145 14 315
4 145 176 177 146 14 315
4 146 177 178 147 14 315
4 147 178 179 148 14 315
4 148 179 180 149 14 315
4 149 180 181 150 14 315
4 150 181 182 151 14 315
4 151 182 183 152 14 315
4 152 183 184 153 14 315
4 153 184 185 154 14 315
4 155 186 187 156 14 315
4 156 187 188 157 14 315
4 157 188 189 158 14 315
4 158 189 190 159 14 315
4 159 190 191 160 14 315
4 160 191 192 161 14 315
4 161 192 193 162 14 315
4 162 193 194 163 14 315
4 163 194 195 164 14 315
4 164 195 196 165 14 315
4 165 196 197 166 14 315
4 166 197 198 167 14 315
4 167 198 199 168 14 315
4 168 199 200 169 14 315
4 169 200 201 170 14 315
4 170 201 202 171 14 315
4 171 202 203 172 14 315
4 172 203 204 173 14 315
4 173 204 205 174 14 315
4 174 205 206 175 14 315
4 175 206 207 176 14 315
4 176 207 208 177 14 315
4 177 208 209 178 14 315
4 178 209 210 179 14 315
4 179 210 211 180 14 315
4 180 211 212 181 14 315
4 181 212 213 182 14 315
4 182 213 214 183 14 315
4 183 214 215 184 14 315
4 184 215 216 185 14 315
4 186 217 218 187 14 315
4 187 218 219 188 14 315
4 188 219 220 189 14 315
4 189 220 221 190 14 315
4 190 221 222 191 14 315
4 191 222 223 192 14 315
4 192 223 224 193 14 315
4 193 224 225 194 14 315
4 194 225 226 195 14 315
4 195 226 227 196 14 315
4 196 227 228 197 14 315
4 197 228 229 198 14 315
4 198 229 230 199 14 315
4 199 230 231 200 14 315
4 200 231 232 201 14 315
4 201 232 233 202 14 315
4 202 233 234 203 14 315
4 203 234 235 204 14 315
4 204 235 236 205 14 315
4 205 236 237 206 14 315
4 206 237 238 207 14 315
4 207 238 239 208 14 315
4 208 239 240 209 14 315
4 209 240 241 210 14 315
4 210 241 242 211 14 315
4 211 242 243 212 14 315
4 212 243 244 213 14 315
4 213 244 245 214 14 315
4 214 245 246 215 14 315
4 215 246 247 216 14 315
4 217 248 249 218 14 315
4 218 249 250 219 14 315
4 219 250 251 220 14 315
4 220 251 252 221 14 315
4 221 252 253 222 14 315
4 222 253 254 223 14 315
4 223 254 255 224 14 315
4 224 255 256 225 14 315
4 225 256 257 226 14 315
4 226 257 258 227 14 315
4 227 258 259 228 14 315
4 228 259 260 229 14 315
4 229 260 261 230 14 315
4 230 261 262 231 14 315
4 231 262 263 232 14 315
4 232 263 264 233 14 315
4 233 264 265 234 14 315
4 234 265 266 235 14 315
4 235 266 267 236 14 315
4 236 267 268 237 14 315
4 237 268 269 238 14 315
4 238 269 270 239 14 315
4 239 270 271 240 14 315
4 240 271 272 241 14 315
4 241 272 273 242 14 315
4 242 273 274 243 14 315
4 243 274 275 244 14 315
4 244 275 276 245 14 315
4 245 276 277 246 14 315
4 246 277 278 247 14 315
4 248 279 280 249 14 315
4 249 280 281 250 14 315
4 250 281 282 251 14 315
4 251 282 283 252 14 315
4 252 283 284 253 14 315
4 253 284 285 254 14 315
4 254 285 286 255 14 315
4 255 286 287 256 14 315
4 256 287 288 257 14 315
4 257 288 289 258 14 315
4 258 289 290 259 14 315
4 259 290 291 260 14 315
4 260 291 292 261 14 315
4 261 292 293 262 14 315
4 262 293 294 263 14 315
4 263 294 295 264 14 315
4 264 295 296 265 14 315
4 265 296 297 266 14 315
4 266 297 298 267 14 315
4 267 298 299 268 14 315
4 268 299 300 269 14 315
4 269 300 301 270 14 315
4 270 301 302 271 14 315
4 271 302 303 272 14 315
4 272 303 304 273 14 315
4 273 304 305 274 14 315
4 274 305 306 275 14 315
4 275 306 307 276 14 315
4 276 307 308 277 14 315
4 277 308 309 278 14 315
4 279 310 311 280 14 315
4 280 311 312 281 14 315
4 281 312 313 282 14 315
4 282 313 314 283 14 315
4 283 314 315 284 14 315
4 284 315 316 285 14 315
4 285 316 317 286 14 315
4 286 317 318 287 14 315
4 287 318 319 288 14 315
4 288 319 320 289 14 315
4 289 320 321 290 14 315
4 290 321 322 291 14 315
4 291 322 323 292 14 315
4 292 323 324 293 14 315
4 293 324 325 294 14 315
4 294 325 326 295 14 315
4 295 326 327 296 14 315
4 296 327 328 297 14 315
4 297 328 329 298 14 315
4 298 329 330 299 14 315
4 299 330 331 300 14 315
4 300 331 332 301 14 315
4 301 332 333 302 14 315
4 302 333 334 303 14 315
4 303 334 335 304 14 315
4 304 335 336 305 14 315
4 305 336 337 306 14 315
4 306 337 338 307 14 315
4 307 338 339 308 14 315
4 308 339 340 309 14 315
4 310 341 342 311 14 315
4 311 342 343 312 14 315
4 312 343 344 313 14 315
4 313 344 345 314 14 315
4 314 345 346 315 14 315
4 315 346 347 316 14 315
4 316 347 348 317 14 315
4 317 348 349 318 14 315
4 318 349 350 319 14 315
4 319 350 351 320 14 315
4 320 351 352 321 14 315
4 321 352 353 322 14 315
4 322 353 354 323 14 315
4 323 354 355 324 14 315
4 324 355 356 325 14 315
4 325 356 357 326 14 315
4 326 357 358 327 14 315
4 327 358 359 328 14 315
4 328 359 360 329 14 315
4 329 360 361 330 14 315
4 330 361 362 331 14 315
4 331 362 363 332 14 315
4 332 363 364 333 14 315
4 333 364 365 334 14 315
4 334 365 366 335 14 315
4 335 366 367 336 14 315
4 336 367 368 337 14 315
4 337 368 369 338 14 315
4 338 369 370 339 14 315
4 339 370 371 340 14 315
4 341 372 373 342 14 315
4 342 373 374 343 14 315
4 343 374 375 344 14 315
4 344 375 376 345 14 315
4 345 376 377 346 14 315
4 346 377 378 347 14 315
4 347 378 379 348 14 315
4 348 379 380 349 14 315
4 349 380 381 350 14 315
4 350 381 382 351 14 315
4 351 382 383 352 14 315
4 352 383 384 353 14 315
4 353 384 385 354 14 315
4 354 385 386 355 14 315
4 355 386 387 356 14 315
4 356 387 388 357 14 315
4 357 388 389 358 14 315
4 358 389 390 359 14 315
4 359 390 391 360 14 315
4 360 391 392 361 14 315
4 361 392 393 362 14 315
4 362 393 394 363 14 315
4 363 394 395 364 14 315
4 364 395 396 365 14 315
4 365 396 397 366 14 315
4 366 397 398 367 14 315
4 367 398 399 368 14 315
4 368 399 400 369 14 315
4 369 400 401 370 14 315
4 370 401 402 371 14 315
4 403 408 409 404 8 235
4 404 409 410 405 8 235
4 405 410 411 406 8 235
4 406 411 412 407 8 235
4 408 413 414 409 8 235
4 409 414 415 410 8 235
4 410 415 416 411 8 235
4 411 416 417 412 8 235
4 413 418 419 414 8 235
4 414 419 420 415 8 235
4 415 420 421 416 8 235
4 416 421 422 417 8 235
4 418 423 424 419 8 235
4 419 424 425 420 8 235
4 420 425 426 421 8 235
4 421 426 427 422 8 235
4 423 428 429 424 8 235
4 424 429 430 425 8 235
4 425 430 431 426 8 235
4 426 431 432 427 8 235
4 428 433 434 429 8 235
4 429 434 435 430 8 235
4 430 435 436 431 8 235
4 431 436 437 432 8 235
4 433 438 439 434 8 235
4 434 439 440 435 8 235
4 435 440 441 436 8 235
4 436 441 442 437 8 235
4 438 443 444 439 8 235
4 439 444 445 440 8 235
4 440 445 446 441 8 235
4 441 446 447 442 8 235
4 443 448 449 444 8 235
4 444 449 450 445 8 235
4 445 450 451 446 8 235
4 446 451 452 447 8 235
4 448 453 454 449 8 235
4 449 454 455 450 8 235
4 450 455 456 451 8 235
4 451 456 457 452 8 235
4 453 458 459 454 8 235
4 454 459 460 455 8 235
4 455 460 461 456 8 235
4 456 461 462 457 8 235
4 458 463 464 459 8 235
4 459 464 465 460 8 235
4 460 465 466 461 8 235
4 461 466 467 462 8 235
4 468 470 471 469 17 235
4 470 472 473 471 17 235
4 472 474 475 473 17 235
4 474 476 477 475 17 235
4 476 478 479 477 17 235
4 478 480 481 479 17 235
4 480 482 483 481 17 235
4 482 484 485 483 17 235
4 484 486 487 485 17 235
4 486 488 489 487 17 235
4 488 490 491 489 17 235
4 490 492 493 491 17 235
4 494 499 500 495 8 235
4 495 500 501 496 8 235
4 496 501 502 497 8 235
4 497 502 503 498 8 235
4 499 504 505 500 8 235
4 500 505 506 501 8 235
4 501 506 507 502 8 235
4 502 507 508 503 8 235
4 504 509 510 505 8 235
4 505 510 511 506 8 235
4 506 511 512 507 8 235
4 507 512 513 508 8 235
4 509 514 515 510 8 235
4 510 515 516 511 8 235
4 511 516 517 512 8 235
4 512 517 518 513 8 235
4 514 519 520 515 8 235
4 515 520 521 516 8 235
4 516 521 522 517 8 235
4 517 522 523 518 8 235
4 519 524 525 520 8 235
4 520 525 526 521 8 235
4 521 526 527 522 8 235
4 522 527 528 523 8 235
4 524 529 530 525 8 235
4 525 530 531 526 8 235
4 526 531 532 527 8 235
4 527 532 533 528 8 235
4 529 534 535 530 8 235
4 530 535 536 531 8 235
4 531 536 537 532 8 235
4 532 537 538 533 8 235
4 534 539 540 535 8 235
4 535 540 541 536 8 235
4 536 541 542 537 8 235
4 537 542 543 538 8 235
4 539 544 545 540 8 235
4 540 545 546 541 8 235
4 541 546 547 542 8 235
4 542 547 548 543 8 235
4 544 549 550 545 8 235
4 545 550 551 546 8 235
4 546 551 552 547 8 235
4 547 552 553 548 8 235
4 549 554 555 550 8 235
4 550 555 556 551 8 235
4 551 556 557 552 8 235
4 552 557 558 553 8 235
4 559 561 562 560 17 235
4 561 563 564 562 17 235
4 563 565 566 564 17 235
4 565 567 568 566 17 235
4 567 569 570 568 17 235
4 569 571 572 570 17 235
4 571 573 574 572 17 235
4 573 575 576 574 17 235
4 575 577 578 576 17 235
4 577 579 580 578 17 235
4 579 581 582 580 17 235
4 581 583 584 582 17 235
